PathFileType	4	(X/Y/Z)	s08c0201.trc
DataRate	CameraRate	NumFrames	NumMarkers	Units	OrigDataRate	OrigDataStartFrame	OrigNumFrames
200	200	4	50	mm	200	250	2000
Frame#	Time	racr			lacr			c7			jug			rlel			rdr			llel			ldr			s2			lic			ric			lasi			rasi			rpsi			lpsi			rgt			lgt			rth1			rth2			rth3			rth4			rlfc			rmfc			rsh1			rsh2			rsh3			rsh4			rlmal			rmmal			rcal			rtoe			rmt5			lth1			lth2			lth4			lth3			llfc			lmfc			llmal			lmmal			lcal			lmt5			lsh1			lsh2			lsh3			lsh4			ltoe			SBIKE			LBIKE			RBIKE			
		X1	Y1	Z1	X2	Y2	Z2	X3	Y3	Z3	X4	Y4	Z4	X5	Y5	Z5	X6	Y6	Z6	X7	Y7	Z7	X8	Y8	Z8	X9	Y9	Z9	X10	Y10	Z10	X11	Y11	Z11	X12	Y12	Z12	X13	Y13	Z13	X14	Y14	Z14	X15	Y15	Z15	X16	Y16	Z16	X17	Y17	Z17	X18	Y18	Z18	X19	Y19	Z19	X20	Y20	Z20	X21	Y21	Z21	X22	Y22	Z22	X23	Y23	Z23	X24	Y24	Z24	X25	Y25	Z25	X26	Y26	Z26	X27	Y27	Z27	X28	Y28	Z28	X29	Y29	Z29	X30	Y30	Z30	X31	Y31	Z31	X32	Y32	Z32	X33	Y33	Z33	X34	Y34	Z34	X35	Y35	Z35	X36	Y36	Z36	X37	Y37	Z37	X38	Y38	Z38	X39	Y39	Z39	X40	Y40	Z40	X41	Y41	Z41	X42	Y42	Z42	X43	Y43	Z43	X44	Y44	Z44	X45	Y45	Z45	X46	Y46	Z46	X47	Y47	Z47	X48	Y48	Z48	X49	Y49	Z49	X50	Y50	Z50	
250	1.2500	589.613668	1366.504093	-93.551150	580.375485	1372.712713	-409.101931	559.053376	1417.541400	-246.105631	534.767389	1256.490154	-241.611153	556.455405	1108.751165	34.803725	780.401042	942.405233	-63.285129	573.821860	1115.259166	-528.873203	772.999960	931.561998	-435.585847	-4.167060	1219.186061	-232.744531	153.945687	1190.587419	-383.165749	168.387557	1197.012512	-75.989868	171.683073	1141.937067	-349.342164	185.752383	1144.414554	-114.796253	36.627979	1253.240059	-181.487008	31.082749	1259.629673	-276.211432	81.215749	1103.020958	-43.669185	88.806098	1098.990389	-424.339201	194.658637	973.975987	-40.287174	268.645796	925.051526	-44.752522	307.072264	847.230256	-56.499137	295.444582	949.320561	-54.540774	385.362019	752.922889	-72.745176	362.532456	734.238767	-180.015786	348.077532	625.152025	-36.526958	367.876937	538.609593	-51.116276	341.562033	456.120571	-55.652967	395.048407	540.993801	-81.794650	327.420091	335.628390	-59.751853	338.459010	358.589292	-149.099604	251.164052	301.112609	-104.092621	548.139651	305.346731	-111.562124	463.589565	268.826590	-43.003025	175.205172	997.728609	-433.306289	251.643440	955.145568	-435.060942	276.771504	979.748653	-423.074184	296.511894	878.299682	-437.824907	359.121780	762.084130	-412.597344	361.691323	739.315674	-348.829527	53.632933	485.417397	-397.871100	84.768463	491.782129	-313.541058	-22.188561	492.294659	-357.071035	142.081444	356.490098	-420.823245	274.378840	668.648732	-431.157369	223.806784	603.164825	-408.145289	145.340278	563.919315	-409.503580	239.237386	591.099180	-372.187108	229.299280	349.874860	-352.581621	-138.437349	941.954466	-228.860074	17.740888	79.784950	-427.784993	17.869801	79.901747	-29.420829	
251	1.2550	591.186506	1366.814880	-94.599011	581.107043	1371.818130	-410.200797	559.964448	1417.893085	-247.118120	535.997070	1256.493001	-242.166016	557.052320	1109.511111	34.692969	780.247814	942.692378	-63.555186	572.858807	1114.021932	-529.238861	773.194860	931.853082	-435.922638	-3.245330	1219.525601	-231.772660	167.397022	1196.991813	-397.203424	169.645710	1196.899584	-75.281186	172.284896	1143.403034	-348.571784	186.974476	1144.246591	-114.167274	37.892994	1253.445334	-180.479014	31.867125	1260.276937	-274.973327	82.051417	1102.177640	-43.534828	90.192056	1100.944457	-424.260981	193.941819	971.509222	-39.993221	266.974393	921.165041	-44.346135	304.000932	842.760896	-56.342046	294.266543	944.954427	-54.277423	380.832056	747.494741	-72.499414	357.529460	728.734589	-179.605259	344.299769	619.686264	-36.154725	364.849596	533.161182	-50.695982	339.094015	450.519403	-55.237173	391.901942	535.870719	-81.472178	325.826550	329.760555	-59.219969	337.036231	352.533596	-148.706998	249.554490	295.784369	-103.678862	546.520682	298.234133	-111.563957	461.883867	262.152328	-42.945518	177.442175	1000.887080	-432.949063	254.411542	959.376331	-434.910705	279.190151	984.332327	-423.022323	300.286241	883.180265	-438.025865	363.927490	767.576997	-413.131962	367.883782	744.083185	-354.439619	57.102998	492.596920	-398.043848	89.450948	498.851794	-313.948961	-18.485748	500.109884	-357.093403	144.396143	362.679863	-420.842890	279.001225	674.595980	-431.467418	227.963539	609.311475	-408.519350	148.843450	569.998718	-408.759140	243.404471	597.076346	-372.717308	231.577708	355.103849	-352.533546	-138.740184	942.092441	-229.165132	17.730074	79.817458	-427.771245	17.853209	79.896152	-29.419669	
252	1.2600	592.719541	1367.215315	-95.851621	581.933968	1370.904561	-411.410685	560.783886	1418.327970	-248.275173	536.940741	1256.912543	-242.923797	557.712993	1110.320833	34.416485	780.290667	942.873818	-63.574322	571.901088	1112.637113	-529.604764	773.439069	932.203261	-436.240738	-2.375781	1219.919609	-230.786787	169.902864	1199.098444	-399.047834	170.931634	1196.990954	-74.623668	172.914577	1145.016683	-347.850006	188.082765	1144.100298	-113.520539	39.138918	1253.749136	-179.457849	32.794767	1260.893033	-273.936852	82.781358	1101.517665	-43.447733	91.522762	1103.033510	-424.301412	193.095927	969.048306	-39.612965	265.177604	917.281518	-43.936761	300.765659	838.288475	-56.238139	292.894566	940.730913	-53.986704	376.035301	742.136560	-72.205240	352.445050	723.415119	-179.053617	340.437617	614.240735	-35.663314	361.451547	527.821497	-50.547005	336.342212	445.131926	-54.878848	388.614964	530.784030	-81.345999	323.904554	324.116436	-58.895585	334.934291	347.126776	-148.470323	247.747560	290.755229	-103.509678	544.750901	291.152059	-111.533069	459.863821	255.571913	-42.878695	179.598516	1004.304721	-432.654411	257.090495	963.868387	-434.737012	281.591962	989.048225	-422.869442	304.079297	888.261070	-438.049674	368.627422	773.262406	-413.604839	373.589879	749.147352	-357.457856	60.731314	499.599879	-398.230200	92.379438	505.408854	-314.738234	-14.636627	507.866842	-357.273833	146.933847	368.764920	-420.894877	283.441248	680.555927	-431.876103	232.204060	615.631563	-409.134291	152.744444	576.686479	-409.036819	247.629964	603.069112	-373.133495	233.984540	360.385424	-352.569526	-138.654441	942.124181	-229.083480	17.713066	79.946930	-427.867147	17.858962	79.912385	-29.392219	
253	1.2650	594.224304	1367.827154	-97.141257	582.668500	1369.883835	-412.583661	561.629533	1418.732445	-249.235784	538.970737	1256.953144	-244.767149	558.643552	1111.130206	34.455809	780.332991	943.014130	-63.563434	570.880390	1111.299883	-530.030512	773.709509	932.518415	-436.441625	-1.466512	1220.390348	-229.910536	167.996822	1199.540635	-396.040193	172.274695	1197.070094	-74.073003	173.458417	1146.671261	-347.066756	189.642159	1144.000272	-112.838725	40.418460	1254.247508	-178.623803	33.680955	1261.635386	-272.931895	83.405002	1100.829166	-43.414961	92.769583	1105.154582	-424.303457	192.051647	966.748572	-39.449086	263.273271	913.743152	-43.655018	297.184147	834.136445	-56.144185	291.371392	936.655791	-53.648104	371.186214	736.977575	-71.866584	347.298747	718.324187	-178.598739	336.685072	608.894921	-35.353765	357.902017	522.920903	-50.333587	333.427066	439.856601	-54.660171	385.100425	525.834053	-81.121476	321.728988	318.725384	-58.723880	332.772026	341.716963	-148.251412	245.738554	285.910274	-103.505264	542.767275	283.922559	-111.426156	457.559487	249.076727	-42.828488	181.724518	1007.872027	-432.353356	259.692975	968.410115	-434.575951	283.852819	993.950441	-422.701229	307.649379	893.536185	-438.163210	383.012779	785.453627	-425.865577	378.668120	754.574758	-357.128415	64.878832	506.861869	-398.888027	95.595422	512.191943	-314.958532	-10.605830	515.334877	-357.501987	149.627227	374.811670	-420.996967	288.047027	686.560931	-432.033315	236.500509	621.668871	-409.423727	156.756921	583.238576	-409.435079	251.827160	609.030304	-373.458361	236.707053	365.561722	-352.534804	-138.559718	942.087975	-228.985707	17.746274	79.824674	-427.767025	17.845465	79.888550	-29.425786	
